<svg width="42" height="42" viewBox="0 0 42 42" fill="none" xmlns="http://www.w3.org/2000/svg">
<g filter="url(#filter0_d_1556_3945)">
<rect width="22" height="22" rx="11" transform="matrix(-1 0 0 1 32 8)" fill="white"/>
<path d="M22.7335 14.2368C22.818 14.3114 22.885 14.3999 22.9307 14.4974C22.9765 14.5949 23 14.6995 23 14.805C23 14.9106 22.9765 15.0151 22.9307 15.1126C22.885 15.2101 22.818 15.2987 22.7335 15.3733L19.1982 18.5007L22.7335 21.6281C22.9039 21.7788 22.9996 21.9832 22.9996 22.1964C22.9996 22.4095 22.9039 22.6139 22.7335 22.7646C22.5632 22.9153 22.3321 23 22.0912 23C21.8502 23 21.6191 22.9153 21.4488 22.7646L17.2665 19.0649C17.182 18.9904 17.115 18.9018 17.0693 18.8043C17.0235 18.7068 17 18.6022 17 18.4967C17 18.3911 17.0235 18.2866 17.0693 18.1891C17.115 18.0916 17.182 18.003 17.2665 17.9284L21.4488 14.2287C21.795 13.9224 22.3782 13.9224 22.7335 14.2368Z" fill="#A0A0A0"/>
</g>
<defs>
<filter id="filter0_d_1556_3945" x="0" y="0" width="42" height="42" filterUnits="userSpaceOnUse" color-interpolation-filters="sRGB">
<feFlood flood-opacity="0" result="BackgroundImageFix"/>
<feColorMatrix in="SourceAlpha" type="matrix" values="0 0 0 0 0 0 0 0 0 0 0 0 0 0 0 0 0 0 127 0" result="hardAlpha"/>
<feOffset dy="2"/>
<feGaussianBlur stdDeviation="5"/>
<feComposite in2="hardAlpha" operator="out"/>
<feColorMatrix type="matrix" values="0 0 0 0 0.172549 0 0 0 0 0.054902 0 0 0 0 0.380392 0 0 0 0.05 0"/>
<feBlend mode="normal" in2="BackgroundImageFix" result="effect1_dropShadow_1556_3945"/>
<feBlend mode="normal" in="SourceGraphic" in2="effect1_dropShadow_1556_3945" result="shape"/>
</filter>
</defs>
</svg>
