<svg width="42" height="42" viewBox="0 0 42 42" fill="none" xmlns="http://www.w3.org/2000/svg">
<g filter="url(#filter0_d_1556_3944)">
<rect x="10" y="8" width="22" height="22" rx="11" fill="white"/>
<path d="M18.2665 14.2368C18.182 14.3114 18.115 14.3999 18.0693 14.4974C18.0235 14.5949 18 14.6995 18 14.805C18 14.9106 18.0235 15.0151 18.0693 15.1126C18.115 15.2101 18.182 15.2987 18.2665 15.3733L21.8018 18.5007L18.2665 21.6281C18.0961 21.7788 18.0004 21.9832 18.0004 22.1964C18.0004 22.4095 18.0961 22.6139 18.2665 22.7646C18.4368 22.9153 18.6679 23 18.9088 23C19.1498 23 19.3809 22.9153 19.5512 22.7646L23.7335 19.0649C23.818 18.9904 23.885 18.9018 23.9307 18.8043C23.9765 18.7068 24 18.6022 24 18.4967C24 18.3911 23.9765 18.2866 23.9307 18.1891C23.885 18.0916 23.818 18.003 23.7335 17.9284L19.5512 14.2287C19.205 13.9224 18.6218 13.9224 18.2665 14.2368Z" fill="#A0A0A0"/>
</g>
<defs>
<filter id="filter0_d_1556_3944" x="0" y="0" width="42" height="42" filterUnits="userSpaceOnUse" color-interpolation-filters="sRGB">
<feFlood flood-opacity="0" result="BackgroundImageFix"/>
<feColorMatrix in="SourceAlpha" type="matrix" values="0 0 0 0 0 0 0 0 0 0 0 0 0 0 0 0 0 0 127 0" result="hardAlpha"/>
<feOffset dy="2"/>
<feGaussianBlur stdDeviation="5"/>
<feComposite in2="hardAlpha" operator="out"/>
<feColorMatrix type="matrix" values="0 0 0 0 0.172549 0 0 0 0 0.054902 0 0 0 0 0.380392 0 0 0 0.05 0"/>
<feBlend mode="normal" in2="BackgroundImageFix" result="effect1_dropShadow_1556_3944"/>
<feBlend mode="normal" in="SourceGraphic" in2="effect1_dropShadow_1556_3944" result="shape"/>
</filter>
</defs>
</svg>
