<svg width="24" height="24" viewBox="0 0 24 24" fill="none" xmlns="http://www.w3.org/2000/svg">
<path fill-rule="evenodd" clip-rule="evenodd" d="M9.82889 13.8279L9.82974 13.827C10.2013 13.4564 10.496 13.0159 10.6968 12.531C10.8977 12.046 11.0007 11.5262 11 11.0013L11 11C11 9.89489 10.553 8.89626 9.82889 8.17211C9.10364 7.44685 8.10496 7 7 7C5.89504 7 4.89636 7.44685 4.17111 8.17211C3.44695 8.89626 3 9.89489 3 11C3 12.1051 3.44695 13.1037 4.17111 13.8279C4.89636 14.5532 5.89504 15 7 15C8.10496 15 9.10364 14.5532 9.82889 13.8279ZM2.93549 21.4352C3.82516 21.7587 5.20172 22 7 22C8.67515 22 10.0575 21.7606 10.9858 21.4322C11.4547 21.2664 11.7588 21.095 11.9256 20.9591C11.9571 20.9334 11.9801 20.9122 11.9964 20.8958C11.9572 20.3238 11.5951 19.6448 10.7839 19.0622C9.93336 18.4513 8.6449 18 7 18C3.56571 18 2.06917 19.7406 2.00235 20.9181C2.01623 20.9334 2.03675 20.954 2.06633 20.9798C2.21117 21.1057 2.48689 21.2721 2.93549 21.4352ZM1.97651 20.8846C1.97666 20.8846 1.97786 20.8864 1.97964 20.89C1.97725 20.8864 1.97636 20.8846 1.97651 20.8846ZM12.0324 20.8533C12.0326 20.8533 12.0313 20.8556 12.028 20.8601C12.0305 20.8555 12.0321 20.8533 12.0324 20.8533ZM10.536 7.465C11.44 8.369 12 9.619 12 11C12.0009 11.6566 11.872 12.3069 11.6207 12.9136C11.3695 13.5202 11.0009 14.0713 10.536 14.535C9.631 15.44 8.381 16 7 16C5.619 16 4.369 15.44 3.464 14.535C2.56 13.631 2 12.381 2 11C2 9.619 2.56 8.369 3.464 7.465C4.369 6.56 5.619 6 7 6C8.381 6 9.631 6.56 10.536 7.465ZM7 23C3.25 23 1 22 1 21C1 19 3.25 17 7 17C10.646 17 13 19 13 21C13 22 10.518 23 7 23Z" fill="#818EC4"/>
<path fill-rule="evenodd" clip-rule="evenodd" d="M20.8289 7.82789L20.8297 7.82705C21.2013 7.45635 21.496 7.01588 21.6968 6.53095C21.8977 6.04602 22.0007 5.52619 22 5.00132L22 5C22 3.89489 21.553 2.89626 20.8289 2.17211C20.1036 1.44685 19.105 1 18 1C16.895 1 15.8964 1.44685 15.1711 2.17211C14.447 2.89626 14 3.89489 14 5C14 6.10511 14.447 7.10374 15.1711 7.82789C15.8964 8.55315 16.895 9 18 9C19.105 9 20.1036 8.55315 20.8289 7.82789ZM13.9355 15.4352C14.8252 15.7587 16.2017 16 18 16C19.6751 16 21.0575 15.7606 21.9858 15.4322C22.4547 15.2664 22.7588 15.095 22.9256 14.9591C22.9571 14.9334 22.9801 14.9122 22.9964 14.8958C22.9572 14.3238 22.5951 13.6448 21.7839 13.0622C20.9334 12.4513 19.6449 12 18 12C14.5657 12 13.0692 13.7406 13.0023 14.9181C13.0162 14.9334 13.0367 14.954 13.0663 14.9798C13.2112 15.1057 13.4869 15.2721 13.9355 15.4352ZM12.9765 14.8846C12.9767 14.8846 12.9779 14.8864 12.9796 14.89C12.9772 14.8864 12.9764 14.8846 12.9765 14.8846ZM23.0324 14.8533C23.0326 14.8533 23.0313 14.8556 23.028 14.8601C23.0305 14.8555 23.0321 14.8533 23.0324 14.8533ZM21.536 1.465C22.44 2.369 23 3.619 23 5C23.0009 5.65662 22.872 6.30693 22.6207 6.91358C22.3695 7.52023 22.0009 8.07126 21.536 8.535C20.631 9.44 19.381 10 18 10C16.619 10 15.369 9.44 14.464 8.535C13.56 7.631 13 6.381 13 5C13 3.619 13.56 2.369 14.464 1.465C15.369 0.56 16.619 0 18 0C19.381 0 20.631 0.56 21.536 1.465ZM18 17C14.25 17 12 16 12 15C12 13 14.25 11 18 11C21.646 11 24 13 24 15C24 16 21.518 17 18 17Z" fill="#818EC4"/>
</svg>
