<svg width="24" height="24" viewBox="0 0 24 24" fill="none" xmlns="http://www.w3.org/2000/svg">
<path fill-rule="evenodd" clip-rule="evenodd" d="M11.9996 4.8297C11.854 4.8297 11.7143 4.88429 11.6112 4.9815L5.85366 10.4226V18.6517C5.85366 18.9379 6.09964 19.1703 6.40244 19.1703H9.58537V15.5404C9.58537 14.796 10.2245 14.1921 11.0122 14.1921H12.9878C13.7755 14.1921 14.4146 14.796 14.4146 15.5404V19.1703H17.5976C17.9004 19.1703 18.1463 18.9379 18.1463 18.6517V10.4229L12.3879 4.9815C12.3878 4.98146 12.3879 4.98154 12.3879 4.9815C12.2848 4.88437 12.1451 4.8297 11.9996 4.8297ZM19.0244 11.2526L20.2505 12.4112C20.422 12.5732 20.7 12.5732 20.8714 12.4112C21.0429 12.2492 21.0429 11.9865 20.8714 11.8245L13.0085 4.39456C12.7408 4.14207 12.3778 4 11.9996 4C11.6213 4 11.2586 4.14181 10.9909 4.3943L3.12857 11.8245C2.95713 11.9865 2.95715 12.2492 3.1286 12.4112C3.30006 12.5732 3.57804 12.5732 3.74948 12.4112L4.97561 11.2524V18.6517C4.97561 19.3961 5.6147 20 6.40244 20H17.5976C18.3853 20 19.0244 19.3961 19.0244 18.6517V11.2526ZM13.5366 19.1703H10.4634V15.5404C10.4634 15.2542 10.7094 15.0218 11.0122 15.0218H12.9878C13.2906 15.0218 13.5366 15.2542 13.5366 15.5404V19.1703Z" fill="#818EC4"/>
</svg>
